inDegrees=yes
name=ik_lifting_orientations
DataType=double
version=3
OpenSimVersion=4.5-2024-01-10-34fd6af
endheader
time	pelvis_tilt	pelvis_list	pelvis_rotation	pelvis_tx	pelvis_ty	pelvis_tz	hip_flexion_r	hip_adduction_r	hip_rotation_r	knee_angle_r	knee_angle_r_beta	ankle_angle_r	subtalar_angle_r	mtp_angle_r	hip_flexion_l	hip_adduction_l	hip_rotation_l	knee_angle_l	knee_angle_l_beta	ankle_angle_l	subtalar_angle_l	mtp_angle_l	lumbar_extension	lumbar_bending	lumbar_rotation	arm_flex_r	arm_add_r	arm_rot_r	elbow_flex_r	pro_sup_r	wrist_flex_r	wrist_dev_r	arm_flex_l	arm_add_l	arm_rot_l	elbow_flex_l	pro_sup_l	wrist_flex_l	wrist_dev_l
3.29	1.138982785085128	-1.262206172249512	83.95257304296696	0	0.9400000003403366	0	44.17201481572779	-10.16829467256111	0	57.81750280030867	1.009105789146428	-5.04305843619609	0	0	44.17201481572779	-10.16829467256111	0	57.81750280030867	1.009105789146428	-5.04305843619609	0	0	0.05555616140928583	-0.01181838760873664	4.229223112213411	-3.210176040343885	0.8360323481570324	14.06371473668348	3.838244625558003	-5.601239798836187	0	0	0	-10.89869332621017	0	75.02328927420633	5.601029546511686	0	0
3.3	1.147758694209683	-1.278978308700473	83.93957265168866	0	0.9400000003403366	0	44.17810418538458	-10.1633124825505	0	57.82985482789225	1.009321372697058	-5.041332440910035	0	0	44.17810418538458	-10.1633124825505	0	57.82985482789225	1.009321372697058	-5.041332440910035	0	0	0.04095910913456906	-0.04545597010507371	4.234518183468968	-3.170603131598308	0.8800048694673344	14.08017285029261	3.819604866367913	-5.573182359521654	0	0	0	-10.91351758930897	0	75.02311931296182	5.572972107079968	0	0
3.31	1.143748513566373	-1.267925141459298	84.24984163016397	0	0.9400000003403366	0	44.17828161750603	-10.16319269856055	0	57.83023116724294	1.009327941057833	-5.04129311015031	0	0	44.17828161750603	-10.16319269856055	0	57.83023116724294	1.009327941057833	-5.04129311015031	0	0	-0.0177748815364359	-0.09686365710807902	3.895769333756763	-3.12258066608661	0.9173606841871036	14.11212685739993	3.827981628176585	-5.572335181967717	0	0	0	-10.91397699610025	0	75.02311436047511	5.572124929522502	0	0
3.32	1.110649682051449	-1.219236162749115	84.77570020236899	0	0.9400000003403366	0	44.17844504422398	-10.16308277148617	0	57.83057870479848	1.009334006732451	-5.041257044225436	0	0	44.17844504422398	-10.16308277148617	0	57.83057870479848	1.009334006732451	-5.041257044225436	0	0	-0.0862180640911968	-0.158419406897436	3.396879485340464	-3.092006045216921	0.9307806746356333	14.04815373814828	3.870291817681829	-5.571554067239863	0	0	0	-10.91440095899093	0	75.02310979890399	5.57134381479138	0	0
3.33	1.09628162623196	-1.186678336566505	84.72211022156475	0	0.9400000003403366	0	44.1970874018719	-10.15092727958843	0	57.86932412750845	1.010010241928817	-5.037349750028772	0	0	44.1970874018719	-10.15092727958843	0	57.86932412750845	1.010010241928817	-5.037349750028772	0	0	-0.1275322031656002	-0.2014869717228764	3.426747031668208	-3.088055437080174	0.9437869272776566	14.07868251370427	3.874802741059552	-5.482688612280479	0	0	0	-10.96242735550002	0	75.02258945096506	5.482478359461476	0	0
3.34	1.082821107094744	-1.193117973026552	84.4528720275505	0	0.9400000003403366	0	44.19725070740513	-10.15082326386604	0	57.86967285063585	1.010016328295568	-5.037316375728262	0	0	44.19725070740513	-10.15082326386604	0	57.86967285063585	1.010016328295568	-5.037316375728262	0	0	-0.1602566921929594	-0.2576552685207769	3.762564521893656	-3.049795263619066	0.9799075368500402	13.99232414338131	3.885578686317195	-5.481902946139463	0	0	0	-10.96285554278239	0	75.02258489274189	5.481692693317187	0	0
3.35	1.039420319681727	-1.13328959070482	85.1621527196066	0	0.9400000003403366	0	44.19749954904071	-10.1506617376179	0	57.87019640529195	1.010025466048131	-5.037264358051296	0	0	44.19749954904071	-10.1506617376179	0	57.87019640529195	1.010025466048131	-5.037264358051296	0	0	-0.2420750657110793	-0.3278715462204664	3.186065344949383	-3.029954328146969	1.013000096497555	13.85457108429758	3.904423983581957	-5.480712501598443	0	0	0	-10.96350114601664	0	75.02257794703991	5.480502248771203	0	0
3.36	1.018926782217706	-1.118348930431038	85.18780916301752	0	0.9400000003403366	0	44.21562751663252	-10.1395778933998	0	57.90809155736606	1.010686861222369	-5.03379208924734	0	0	44.21562751663252	-10.1395778933998	0	57.90809155736606	1.010686861222369	-5.03379208924734	0	0	-0.2753979897518955	-0.3726675589650458	3.278357950112083	-3.002677028133607	1.036563220106544	13.72729204771239	3.896239345852758	-5.39360061810781	0	0	0	-11.01082335509	0	75.02207195239654	5.393390364917495	0	0
3.37	1.002764428116538	-1.086380850830175	85.40605575904786	0	0.9400000003403366	0	44.21570967145256	-10.13952863054583	0	57.90826864663597	1.010689952013198	-5.033776641582422	0	0	44.21570967145256	-10.13952863054583	0	57.90826864663597	1.010689952013198	-5.033776641582422	0	0	-0.3315102762346979	-0.4315729276948936	3.202944841594022	-2.981101640356454	1.074533676597092	13.5642470957088	3.902423010184061	-5.393201972931227	0	0	0	-11.01104189689807	0	75.02206965925203	5.392991719739261	0	0
3.38	0.9789156679520999	-1.059857384601288	85.65638033922309	0	0.9400000003403366	0	44.21584094107114	-10.13944959553687	0	57.90855077698828	1.010694876116766	-5.033751836709969	0	0	44.21584094107114	-10.13944959553687	0	57.90855077698828	1.010694876116766	-5.033751836709969	0	0	-0.3765298959656588	-0.4692045562741237	3.024046616206236	-2.94951840392502	1.091739076563742	13.46015575694742	3.931514144125651	-5.392565721757054	0	0	0	-11.01139036342959	0	75.0220659951944	5.392355468562436	0	0
3.39	0.9961587257176054	-1.079960657335066	85.51293186779175	0	0.9400000003403366	0	44.21920390935566	-10.13751807769385	0	57.91563213896048	1.010818469198707	-5.033160429439103	0	0	44.21920390935566	-10.13751807769385	0	57.91563213896048	1.010818469198707	-5.033160429439103	0	0	-0.395426576571226	-0.4991021576158213	3.22191817971693	-2.898490060262872	1.175575510219786	13.40351529226312	3.904756084384866	-5.376266064920008	0	0	0	-11.02029505692131	0	75.02197212601956	5.376055811657437	0	0
3.4	1.056566344784015	-1.143344131596757	85.39600750277428	0	0.9400000003403366	0	44.23435366438652	-10.12910016657639	0	57.94759117103373	1.011376259534135	-5.030617794874353	0	0	44.23435366438652	-10.12910016657639	0	57.94759117103373	1.011376259534135	-5.030617794874353	0	0	-0.3538222002399677	-0.4718083330982229	3.46790237130538	-2.889380764295438	1.238603726498836	13.21290173430805	3.894142952503779	-5.302551125188076	0	0	0	-11.06066346809296	0	75.02154925496099	5.302340871618459	0	0
